<svg width="120" height="60" viewBox="0 0 120 60" fill="none" xmlns="http://www.w3.org/2000/svg">
<path d="M14.0903 19.7049C14.9738 19.687 15.8558 19.7862 16.7132 20C17.5329 20.164 18.1886 20.4427 18.746 20.8197C19.3034 21.1968 19.7624 21.6886 20.0575 22.3443C20.3526 23 20.5001 23.8197 20.5001 24.6722C20.5001 25.6886 20.287 26.5574 19.7788 27.2131C19.2706 27.8689 18.6312 28.4427 17.746 28.8853C18.9755 29.2459 19.9263 29.9017 20.5329 30.7705C21.1594 31.7184 21.4903 32.831 21.4837 33.9672C21.4837 34.9836 21.2706 35.8525 20.9099 36.5902C20.5493 37.3279 19.9591 37.9672 19.3034 38.3935C18.6476 38.8197 17.828 39.2131 16.9755 39.4099C16.1193 39.637 15.2383 39.7581 14.3526 39.7705H4.56567V19.7049H14.0903ZM13.5165 27.8689C14.3362 27.8689 14.9919 27.6558 15.4837 27.2951C15.9755 26.9345 16.205 26.2787 16.205 25.4918C16.205 25.0492 16.1394 24.623 15.9919 24.3443C15.8444 24.0656 15.6312 23.8525 15.3362 23.623C15.0411 23.3935 14.7624 23.3279 14.3853 23.2623C14.0083 23.1968 13.664 23.1967 13.2378 23.1967H9.0083V27.8689H13.5165ZM13.7296 36.4427C14.1722 36.4427 14.5985 36.3771 14.9591 36.2787C15.3198 36.1804 15.6804 36.0656 15.9755 35.8361C16.2706 35.6066 16.4673 35.3935 16.6968 35.0164C16.9263 34.6394 16.9919 34.1967 16.9919 33.7049C16.9919 32.6886 16.6968 31.9672 16.1231 31.4427C15.5493 30.9181 14.746 30.8197 13.7952 30.8197H9.0083V36.4263L13.7296 36.4427ZM27.7624 36.3771C28.3362 36.9509 29.2378 37.2459 30.3853 37.2459C31.205 37.2459 31.9099 37.0328 32.5165 36.6722C33.123 36.3115 33.4673 35.8033 33.6149 35.3607H37.1722C36.5985 37.0984 35.6968 38.3443 34.5493 39.1312C33.4017 39.9181 32.0083 40.2787 30.3362 40.2787C29.2646 40.2805 28.2024 40.0803 27.205 39.6886C26.2542 39.3279 25.5329 38.8197 24.8772 38.082C24.2214 37.3443 23.7296 36.6066 23.4017 35.6886C23.0379 34.6858 22.8655 33.6237 22.8935 32.5574C22.8935 31.459 23.0575 30.4263 23.3853 29.5082C23.7354 28.5956 24.2524 27.7561 24.9099 27.0328C25.575 26.3522 26.3655 25.8066 27.2378 25.4263C28.2084 25.0426 29.2433 24.8479 30.287 24.8525C31.5165 24.8525 32.6149 25.0656 33.5657 25.5738C34.4765 26.0239 35.2558 26.7015 35.828 27.541C36.4017 28.3607 36.8444 29.2787 37.1394 30.3279C37.3006 31.3853 37.3501 32.4568 37.287 33.5246H26.746C26.746 34.6722 27.1886 35.7869 27.7624 36.3607V36.3771ZM32.3526 28.7377C31.8608 28.2459 31.0411 27.9181 30.0903 27.9181C29.5335 27.9066 28.9822 28.0303 28.4837 28.2787C28.0411 28.4918 27.7624 28.7705 27.4673 29.0984C27.1722 29.4263 27.0247 29.7541 26.9755 30.1148C26.9263 30.4754 26.8116 30.7705 26.8116 31.0656H33.369C33.205 29.9672 32.8771 29.2623 32.3526 28.7377V28.7377ZM42.9755 19.7213V27.2623H43.0411C43.4841 26.46 44.174 25.8219 45.0083 25.4427C45.828 25.082 46.5329 24.8689 47.3362 24.8689C48.2315 24.8357 49.1242 24.9863 49.9591 25.3115C50.6149 25.6066 51.1886 26.0328 51.5657 26.541C51.9427 27.0492 52.2214 27.6886 52.3853 28.4263C52.5493 29.164 52.5985 29.9508 52.5985 30.8853V39.8361H48.5493V31.6394C48.5493 30.4099 48.3362 29.5082 47.9755 28.9508C47.6149 28.3935 46.9591 28.082 46.0083 28.082C44.9099 28.082 44.1231 28.4427 43.6804 29.0328C43.2378 29.623 42.9591 30.7705 42.9591 32.2295V39.8689H38.9591V19.7049L42.9755 19.7213ZM55.4837 27.4263C55.9263 26.7705 56.4345 26.3279 57.0903 25.9017C57.746 25.4754 58.4673 25.2459 59.2706 25.082C60.0739 24.9181 60.8771 24.8689 61.664 24.8689C62.4509 24.8689 63.1394 24.9345 63.9263 25.0328C64.7132 25.1312 65.4017 25.3279 65.9591 25.6066C66.5559 25.8925 67.0778 26.3135 67.4837 26.8361C67.8444 27.3279 68.0575 28.0656 68.0575 28.9672V36.6066C68.0575 37.2623 68.123 37.9181 68.2214 38.4918C68.3198 39.0656 68.5165 39.5902 68.7132 39.8689H64.6476C64.4837 39.7049 64.4345 39.4263 64.3526 39.2131C64.2706 39 64.287 38.7213 64.287 38.4918C63.6545 39.1259 62.8785 39.5983 62.0247 39.8689C61.1558 40.164 60.287 40.2295 59.4017 40.2295C58.6804 40.2295 58.0903 40.164 57.4345 39.9345C56.7788 39.7049 56.3362 39.4918 55.828 39.1148C55.3198 38.7377 55.0083 38.2951 54.7296 37.7377C54.4843 37.1112 54.3619 36.4433 54.369 35.7705C54.369 34.9508 54.5329 34.2459 54.8116 33.7377C55.0954 33.2378 55.4675 32.7934 55.9099 32.4263C56.4025 32.0997 56.9452 31.856 57.5165 31.7049L59.3198 31.3443L61.0575 31.1312L62.5821 30.9181C63.0247 30.7541 63.4017 30.623 63.6804 30.4263C63.9591 30.2295 64.0411 29.9345 64.0411 29.4754C64.0411 29.0164 63.9755 28.6558 63.828 28.459C63.6804 28.2623 63.4673 28.0164 63.2542 27.8853C63.0411 27.7541 62.7624 27.6722 62.4345 27.5902C62.1067 27.5082 61.7788 27.5246 61.4181 27.5246C60.5985 27.5246 60.0411 27.6886 59.6149 28.0164C59.1886 28.3443 58.8935 28.9672 58.7952 29.6886H54.7952C54.7952 28.8197 55.0903 28.0164 55.4509 27.4263H55.4837ZM63.4181 33.0984C63.153 33.1788 62.885 33.2499 62.6149 33.3115C62.3198 33.3771 62.0411 33.3771 61.664 33.4754C61.287 33.5738 61.0083 33.541 60.7132 33.6394L59.8444 33.8525C59.5493 33.9181 59.2706 34.0656 59.1231 34.2131C58.9755 34.3607 58.7624 34.5738 58.6312 34.7869C58.5001 35 58.4181 35.3607 58.4181 35.7377C58.4181 36.1148 58.4837 36.3935 58.6312 36.6066C58.7788 36.8197 58.9263 37.0492 59.1231 37.1804C59.3198 37.3115 59.6149 37.3935 59.9427 37.4754C60.2706 37.5574 60.5165 37.541 60.8935 37.541C61.7132 37.541 62.2706 37.3771 62.6968 37.1804C63.123 36.9836 63.4181 36.6066 63.6476 36.2295C63.8771 35.8525 64.0083 35.5082 64.0083 35.1312C64.0083 34.7541 64.0739 34.4754 64.0739 34.2623V32.7377C63.8608 32.9017 63.6312 33.0328 63.4181 33.0984V33.0984ZM74.1067 25.2295V27.2623H74.1722C74.6153 26.46 75.3051 25.8219 76.1394 25.4427C76.9591 25.082 77.8116 24.8689 78.5985 24.8689C79.4938 24.8357 80.3865 24.9863 81.2214 25.3115C81.9427 25.6066 82.4509 26.0328 82.828 26.541C83.205 27.0492 83.4837 27.6886 83.6968 28.4263C83.9099 29.164 83.9099 29.9508 83.9099 30.8853V39.8361H79.9099V31.6394C79.9099 30.4099 79.6968 29.5082 79.3198 28.9508C78.9427 28.3935 78.3034 28 77.287 28C76.2706 28 75.4017 28.4427 74.8935 29.0984C74.3853 29.7541 74.1722 30.8361 74.1722 32.2951V39.9345H70.1886V25.2459L74.1067 25.2295ZM92.8608 27.8525C92.205 27.8525 91.7132 28.0164 91.2542 28.2951C90.7952 28.5738 90.4345 28.9508 90.1558 29.4427C89.8771 29.9345 89.7132 30.3935 89.5657 30.9672C89.4181 31.541 89.4017 32.0656 89.4017 32.6394C89.4147 33.1776 89.464 33.7143 89.5493 34.2459C89.7132 34.8361 89.8444 35.2623 90.1394 35.7213C90.4345 36.1804 90.7132 36.541 91.1558 36.8197C91.5985 37.0984 92.1067 37.2623 92.7624 37.2623C93.5909 37.2902 94.3993 37.0032 95.0247 36.459C95.5165 35.9672 95.8935 35.2295 95.9755 34.2787H99.828C99.5329 36.2459 98.8116 37.7213 97.5657 38.7049C96.3198 39.6886 94.7296 40.2295 92.7624 40.2295C91.664 40.2295 90.6312 40.0164 89.7788 39.6558C88.9263 39.2951 88.1067 38.7869 87.4509 38.1312C86.7964 37.4615 86.2786 36.6709 85.9263 35.8033C85.5694 34.85 85.3969 33.8375 85.4181 32.8197C85.3901 31.7534 85.5625 30.6913 85.9263 29.6886C86.2528 28.7593 86.7473 27.898 87.3853 27.1476C88.0411 26.4263 88.8608 25.9181 89.7132 25.4754C90.7116 25.0893 91.7739 24.8946 92.8444 24.9017C93.7132 24.9017 94.5165 25.0656 95.3034 25.2623C96.0903 25.459 96.828 25.8361 97.4345 26.2787C98.0411 26.7213 98.5821 27.2951 98.9591 28.0164C99.3362 28.7377 99.5493 29.541 99.6148 30.4754H95.6804C95.5165 28.7377 94.5985 27.8525 92.8444 27.8525H92.8608ZM25.9755 21.082H34.123V23.0492H25.9263L25.9755 21.082ZM105.91 36.3607C106.5 36.9345 107.435 37.2295 108.533 37.2295C109.353 37.2295 110.057 37.0164 110.664 36.6558C111.271 36.2951 111.615 35.7869 111.762 35.3443H115.254C114.664 37.082 113.779 38.3279 112.631 39.1148C111.484 39.9017 110.09 40.2623 108.418 40.2623C107.347 40.2641 106.284 40.0639 105.287 39.6722C104.391 39.3362 103.591 38.7844 102.959 38.0656C102.303 37.4099 101.812 36.5902 101.484 35.6722C101.12 34.6694 100.948 33.6073 100.976 32.541C100.976 31.4427 101.139 30.4099 101.467 29.4918C101.816 28.5786 102.333 27.739 102.992 27.0164C103.657 26.3358 104.447 25.7902 105.32 25.4099C106.271 25.0492 107.287 24.8361 108.369 24.8361C109.598 24.8361 110.697 25.0492 111.566 25.5574C112.477 26.0075 113.256 26.6851 113.828 27.5246C114.402 28.3443 114.844 29.2623 115.139 30.3115C115.424 31.3795 115.524 32.4885 115.435 33.5902H104.894C104.894 34.6886 105.336 35.7705 105.91 36.3771V36.3607ZM110.566 28.7213C110.074 28.2295 109.254 27.9017 108.303 27.9017C107.648 27.9017 107.156 28.0656 106.697 28.2623C106.238 28.459 105.877 28.7541 105.68 29.082C105.484 29.4099 105.238 29.7377 105.189 30.0984C105.139 30.459 105.025 30.7541 105.025 31.0492H111.582C111.369 29.9508 110.992 29.2459 110.566 28.7213V28.7213Z" fill="white"/>
</svg>
