<svg width="120" height="62" viewBox="0 0 120 62" fill="none" xmlns="http://www.w3.org/2000/svg">
<path d="M47.393 25.732L47.21 24.627L47.393 25.732ZM56.003 9.96197C57.555 9.44197 58.905 9.12997 60.125 9.00197L62.958 8.81697C63.745 8.81697 64.328 8.88397 64.994 8.99297L65.184 7.79497C65.184 7.79497 63.342 7.22897 60.924 7.42697L60.724 6.77497C61.1255 6.68995 61.4813 6.4592 61.7227 6.12726C61.9641 5.79532 62.0739 5.38572 62.0311 4.97753C61.9882 4.56934 61.7956 4.19152 61.4905 3.91698C61.1854 3.64245 60.7894 3.49068 60.379 3.49097C59.9693 3.49159 59.5743 3.6437 59.27 3.91803C58.9657 4.19236 58.7736 4.56953 58.7306 4.97698C58.6877 5.38442 58.797 5.79336 59.0374 6.1251C59.2778 6.45684 59.6324 6.68795 60.033 6.77397L60.243 7.49897C57.676 7.85397 55.633 8.85697 55.633 8.85697L56.003 9.96197ZM48.718 14.865L48.895 14.645L48.405 14.289L47.637 13.729C47.592 13.791 46.387 14.899 45.437 16.949C45.3949 16.8828 45.3474 16.8202 45.295 16.762C45.01 16.447 44.61 16.292 44.105 16.299H44.083C43.767 16.299 43.553 16.192 43.41 16.066C43.55 15.886 43.635 15.663 43.635 15.416C43.635 15.1371 43.5242 14.8696 43.327 14.6724C43.1298 14.4752 42.8624 14.3645 42.5835 14.3645C42.3046 14.3645 42.0372 14.4752 41.84 14.6724C41.6428 14.8696 41.532 15.1371 41.532 15.416C41.5318 15.5763 41.5683 15.7345 41.6388 15.8785C41.7092 16.0225 41.8117 16.1485 41.9383 16.2467C42.065 16.345 42.2124 16.413 42.3694 16.4454C42.5264 16.4779 42.6887 16.474 42.844 16.434C43.104 16.722 43.516 16.972 44.114 16.962C44.422 16.957 44.647 17.036 44.801 17.206C44.976 17.396 45.034 17.671 45.051 17.878L45.048 17.886C44.362 19.756 44.558 22.082 44.558 22.082L46.218 22.148C46.252 21.3 46.374 19.818 46.802 18.641C47.63 16.366 48.665 14.938 48.708 14.878L48.718 14.865ZM77.416 10.205C77.2779 10.2048 77.1412 10.2319 77.0136 10.2847C76.886 10.3375 76.7701 10.4149 76.6725 10.5125C76.5749 10.6101 76.4975 10.726 76.4447 10.8536C76.3919 10.9812 76.3648 11.1179 76.365 11.256C76.365 11.344 76.377 11.432 76.399 11.516C76.112 11.776 75.862 12.188 75.871 12.786C75.876 13.094 75.796 13.319 75.627 13.473C75.495 13.593 75.324 13.658 75.163 13.693C73.925 11.963 72.403 10.903 72.403 10.903L71.213 12.183C72.115 13.003 73.033 14.03 73.931 15.313C74.549 16.196 75.183 17.34 75.716 18.477L77.316 17.714C77.316 17.714 76.581 15.897 75.546 14.27C75.726 14.206 75.908 14.11 76.066 13.967C76.381 13.682 76.536 13.281 76.529 12.777C76.524 12.449 76.633 12.227 76.762 12.082C76.947 12.228 77.175 12.307 77.41 12.307C77.6887 12.307 77.956 12.1962 78.1531 11.9991C78.3502 11.802 78.461 11.5347 78.461 11.256C78.461 10.9772 78.3502 10.7099 78.1531 10.5128C77.956 10.3157 77.6887 10.205 77.41 10.205H77.416Z" fill="#010001"/>
<path d="M73.2399 24.665C71.0259 25.743 67.3779 27.168 62.5829 27.835C60.6999 28.097 58.8829 28.195 57.1929 28.195C55.0099 28.195 53.0929 28.027 51.6129 27.845C50.3351 27.6905 49.0658 27.4719 47.8099 27.19C47.8099 27.189 47.7899 27.189 47.7879 27.189C47.9839 27.809 48.2119 28.413 48.4859 28.989C48.4899 28.997 48.4879 29.004 48.4919 29.012C48.4989 29.026 48.5039 29.04 48.5119 29.055L48.6139 29.265L48.7139 29.463L48.7409 29.513C49.2169 30.41 49.7869 31.233 50.4389 31.947C52.6989 34.424 55.0059 34.813 55.0389 34.817L55.0749 34.823L55.1099 34.835C55.1299 34.841 57.1739 35.503 60.2829 35.503C63.3399 35.503 66.3399 34.887 69.1979 33.671C71.3149 32.588 73.3199 30.941 74.3079 29.473C75.0779 28.339 75.6329 27.126 75.9609 25.868C76.1359 25.196 76.2709 24.13 76.1929 23.002C75.5679 23.418 74.5929 24.018 73.2499 24.667L73.2399 24.665ZM47.8899 27.54C47.9543 27.7309 48.023 27.9203 48.0959 28.108C48.0232 27.9202 47.9545 27.7308 47.8899 27.54V27.54ZM62.3999 26.52C66.9999 25.88 70.4919 24.52 72.6129 23.493C74.3759 22.639 75.5069 21.866 75.9459 21.547C75.5099 19.931 74.3079 17.394 73.2039 15.817C70.0539 11.314 66.6579 10.157 64.9139 9.87004C64.2479 9.77004 63.7139 9.69604 62.9609 9.69604C62.2589 9.69604 61.3889 9.75305 60.2209 9.87605C59.0529 9.99905 57.7509 10.306 56.2409 10.811C54.1209 11.511 52.2059 12.634 50.6979 14.031L50.6479 14.078C50.2029 14.484 49.7929 14.926 49.4219 15.4C49.3559 15.492 48.3719 16.853 47.6139 18.938C47.0439 20.502 47.0479 22.782 47.0479 22.805V22.811C47.0479 23.343 47.1009 23.874 47.1599 24.411C47.1609 24.419 47.1749 24.426 47.1749 24.436C47.1829 24.502 47.1969 24.566 47.2049 24.633C47.2541 25.0039 47.3171 25.3729 47.3939 25.739C48.4939 26.017 55.0619 27.539 62.4019 26.527L62.3999 26.52ZM68.6999 14.355C69.4263 14.3553 70.1228 14.644 70.6364 15.1576C71.15 15.6712 71.4387 16.3677 71.4389 17.094C71.4387 17.8204 71.15 18.5169 70.6364 19.0305C70.1228 19.5441 69.4263 19.8328 68.6999 19.833C67.9736 19.8328 67.2771 19.5441 66.7634 19.0305C66.2498 18.5169 65.9612 17.8204 65.9609 17.094C65.9612 16.3677 66.2498 15.6712 66.7634 15.1576C67.2771 14.644 67.9736 14.3553 68.6999 14.355V14.355ZM51.3229 18.671C51.324 17.4973 51.7908 16.372 52.6208 15.5422C53.4508 14.7124 54.5762 14.2458 55.7499 14.245C56.9236 14.2458 58.049 14.7124 58.8791 15.5422C59.7091 16.372 60.1759 17.4973 60.1769 18.671C60.1759 19.8447 59.7091 20.97 58.8791 21.7999C58.049 22.6297 56.9236 23.0963 55.7499 23.097C54.5762 23.0963 53.4508 22.6297 52.6208 21.7999C51.7908 20.97 51.324 19.8447 51.3229 18.671ZM28.3779 38.943C28.5699 38.601 28.9519 38.446 29.5149 38.446C29.7349 38.446 29.9869 38.474 30.3049 38.516L30.9249 38.586C31.0562 38.5864 31.1861 38.5581 31.3053 38.503C31.4245 38.4479 31.5301 38.3673 31.6149 38.267C31.8069 38.075 31.8919 37.797 31.8919 37.521C31.8919 36.621 30.9819 36.143 29.1069 36.143C28.0769 36.143 27.2319 36.265 26.6409 36.54C26.0509 36.788 25.6449 37.23 25.3959 37.82C25.1469 38.41 25.0609 39.2 25.0609 40.194V41.194H24.2449C23.1849 41.194 22.6469 41.547 22.6179 42.307C22.6179 42.649 22.7399 42.937 22.9879 43.157C23.2359 43.377 23.6079 43.487 24.0759 43.487H24.9079V51.885C24.9079 52.505 25.0479 52.973 25.3679 53.32C25.6879 53.667 26.0659 53.817 26.5079 53.817C26.7265 53.8253 26.9441 53.785 27.1452 53.699C27.3463 53.6131 27.5258 53.4837 27.6709 53.32C27.9479 53 28.1169 52.51 28.1169 51.885V43.487H28.9039C29.4709 43.487 29.9339 43.37 30.2399 43.247C30.5819 43.097 30.7369 42.8 30.7369 42.261C30.7369 41.543 30.1469 41.195 28.9319 41.195H28.1169V40.387C28.1169 39.759 28.2289 39.29 28.3789 38.943H28.3779ZM40.2299 42.736C40.2299 42.169 39.9099 41.728 39.2919 41.4C38.6739 41.072 38.0119 40.903 37.3519 40.903C36.6919 40.903 36.1659 41.053 35.7519 41.4C35.3549 41.72 34.9419 42.21 34.5659 42.872C34.5659 42.252 34.4159 41.742 34.1959 41.4C33.9479 41.058 33.5739 40.903 33.0359 40.903C32.0059 40.903 31.4759 41.621 31.4759 43.055V51.93C31.4759 52.55 31.6289 53.06 31.9199 53.365C32.1969 53.707 32.5829 53.862 33.0499 53.862C33.5169 53.862 33.8899 53.712 34.2099 53.392C34.5299 53.05 34.6799 52.582 34.6799 51.92V49.262C34.6773 48.4489 34.7003 47.6358 34.7489 46.824C34.8189 46.164 34.9409 45.572 35.0909 45.104C35.2409 44.607 35.4609 44.264 35.7809 44.016C36.1009 43.768 36.4709 43.646 36.9389 43.646C37.2809 43.646 37.6839 43.716 38.1249 43.866C38.5659 44.016 38.8419 44.086 38.9649 44.086C39.2849 44.086 39.5549 43.964 39.8319 43.716C40.1069 43.449 40.2289 43.106 40.2289 42.736H40.2299ZM51.1729 47.788C51.6429 47.538 51.8629 47.028 51.8629 46.218C51.8629 45.378 51.6429 44.518 51.2029 43.675C50.7408 42.8245 50.0488 42.121 49.2059 41.645C48.3059 41.105 47.2359 40.855 45.9939 40.855C45.0279 40.855 44.1469 41.005 43.3779 41.323C42.5679 41.6 41.9059 42.068 41.3809 42.631C40.8409 43.198 40.4429 43.883 40.1669 44.698C39.8909 45.513 39.7699 46.381 39.7699 47.314C39.7699 49.311 40.3599 50.91 41.4899 52.068C42.6479 53.226 44.2039 53.818 46.2719 53.818C47.1719 53.818 47.9549 53.696 48.6439 53.476C49.3329 53.256 49.8959 52.936 50.3639 52.609C50.8339 52.267 51.1739 51.891 51.3939 51.521C51.6139 51.151 51.7359 50.803 51.7359 50.513C51.7396 50.3732 51.713 50.2342 51.658 50.1056C51.6029 49.977 51.5207 49.8619 51.4169 49.768C51.2249 49.576 50.9469 49.491 50.6289 49.491C50.3519 49.491 50.0889 49.561 49.9389 49.711C49.5419 50.081 49.2209 50.371 48.9729 50.579C48.7169 50.804 48.4459 51.011 48.1629 51.199C47.8859 51.391 47.5729 51.519 47.2629 51.596C46.9429 51.68 46.6029 51.718 46.2309 51.718C45.6639 51.718 45.1429 51.596 44.6749 51.321C44.2069 51.046 43.8349 50.658 43.5449 50.096C43.2606 49.5108 43.11 48.8697 43.1039 48.219H49.3489C50.1459 48.219 50.8069 48.066 51.1809 47.789L51.1729 47.788ZM43.0849 46.385C43.2069 45.315 43.5249 44.469 44.0229 43.935C44.2773 43.6708 44.5835 43.4617 44.9222 43.321C45.261 43.1802 45.6251 43.1108 45.9919 43.117C46.8019 43.117 47.4919 43.403 47.9889 43.937C48.4859 44.471 48.7769 45.317 48.8559 46.385H43.0859H43.0849ZM64.3849 47.788C64.8549 47.538 65.0749 47.028 65.0749 46.218C65.0749 45.378 64.8549 44.518 64.4149 43.675C63.9528 42.8245 63.2608 42.121 62.4179 41.645C61.5079 41.105 60.4479 40.855 59.2059 40.855C58.2399 40.855 57.3589 41.005 56.5899 41.323C55.8019 41.6 55.1559 42.068 54.6199 42.631C54.0839 43.194 53.6819 43.883 53.4059 44.698C53.1299 45.513 53.0089 46.381 53.0089 47.314C53.0089 49.311 53.5989 50.91 54.7289 52.068C55.8869 53.228 57.4419 53.818 59.5089 53.818C60.4089 53.818 61.1919 53.696 61.8809 53.476C62.5699 53.256 63.1329 52.936 63.6009 52.609C64.0709 52.267 64.4109 51.891 64.6329 51.521C64.8549 51.151 64.9749 50.803 64.9749 50.513C64.9786 50.3732 64.952 50.2342 64.897 50.1056C64.8419 49.977 64.7597 49.8619 64.6559 49.768C64.4639 49.576 64.1859 49.491 63.8679 49.491C63.5909 49.491 63.3279 49.561 63.1779 49.711C62.8637 50.0089 62.5415 50.2983 62.2119 50.579C61.9559 50.804 61.6849 51.011 61.4019 51.199C61.1249 51.391 60.8119 51.519 60.5019 51.596C60.1819 51.694 59.8419 51.718 59.4719 51.718C58.9049 51.718 58.3839 51.596 57.9149 51.321C57.4459 51.046 57.0749 50.658 56.7849 50.096C56.5016 49.5105 56.351 48.8695 56.3439 48.219H62.5839C63.4179 48.219 64.0499 48.066 64.3839 47.789L64.3849 47.788ZM56.3249 46.385C56.4469 45.315 56.7649 44.469 57.2629 43.935C57.5173 43.6708 57.8235 43.4617 58.1622 43.321C58.501 43.1802 58.8651 43.1108 59.2319 43.117C60.0419 43.117 60.7319 43.403 61.2289 43.937C61.7259 44.471 62.0389 45.317 62.0959 46.385H56.3239H56.3249ZM76.3089 41.629C75.4689 41.132 74.5589 40.883 73.5949 40.883C72.7849 40.883 72.0469 41.075 71.3849 41.423C70.7229 41.771 70.0999 42.29 69.4999 43.05V42.68C69.4999 42.113 69.3979 41.672 69.1499 41.3C68.8729 40.98 68.4999 40.83 68.0719 40.83C67.6019 40.83 67.2679 40.952 66.9919 41.27C66.7159 41.588 66.6019 42.056 66.6019 42.648V56.373C66.6019 57.09 66.6979 57.587 66.8759 57.971C67.0679 58.313 67.4989 58.511 68.0959 58.511C69.1259 58.511 69.6559 57.821 69.6559 56.415V51.631C70.1139 52.348 70.7809 52.883 71.3989 53.258C71.9889 53.628 72.7609 53.825 73.6569 53.825C74.4019 53.825 75.1209 53.703 75.7719 53.385C76.4229 53.067 77.0199 52.668 77.4889 52.105C77.9579 51.542 78.3259 50.853 78.6169 50.037C78.8939 49.197 79.0149 48.287 79.0149 47.322C79.0149 45.986 78.7649 44.828 78.2969 43.848C77.7949 42.882 77.1339 42.148 76.3229 41.626L76.3089 41.629ZM75.4139 49.595C75.1369 50.185 74.7539 50.655 74.3259 50.975C73.8859 51.295 73.3879 51.445 72.8539 51.445C71.9869 51.445 71.2269 51.103 70.6359 50.385C70.0449 49.667 69.7359 48.702 69.7359 47.422C69.7359 46.086 70.0559 45.05 70.6359 44.365C71.2159 43.68 71.9719 43.335 72.8539 43.335C73.3939 43.335 73.8859 43.485 74.3539 43.805C74.7939 44.125 75.1639 44.593 75.4139 45.183C75.6639 45.773 75.7839 46.491 75.7839 47.335C75.7839 48.17 75.6619 48.911 75.4139 49.6V49.595ZM82.2239 36.298C81.7839 36.298 81.4139 36.448 81.0939 36.738C80.9341 36.8791 80.8069 37.0532 80.7211 37.2483C80.6352 37.4435 80.5929 37.6549 80.5969 37.868C80.5969 38.365 80.7469 38.735 81.0669 39.026C81.3869 39.303 81.7569 39.423 82.1969 39.423C82.6369 39.423 83.0069 39.273 83.3269 39.026C83.6469 38.749 83.7969 38.366 83.7969 37.868C83.7969 37.37 83.6469 37.001 83.3269 36.71C83.0069 36.419 82.6239 36.297 82.2249 36.297L82.2239 36.298ZM82.1519 40.898C81.6819 40.898 81.3399 41.048 81.0499 41.368C80.7749 41.71 80.6369 42.178 80.6369 42.803V51.926C80.6369 52.546 80.7589 53.014 81.0499 53.361C81.3269 53.703 81.6969 53.858 82.1639 53.858C82.6309 53.858 83.0279 53.666 83.3469 53.361C83.6659 53.056 83.8419 52.551 83.8419 51.927V42.705C83.8419 42.138 83.6589 41.697 83.3419 41.369C83.0369 41.049 82.6219 40.899 82.1419 40.899L82.1519 40.898ZM97.2379 51.57L96.6979 50.703L93.4209 45.573L95.1039 44.016C95.9439 43.228 96.3839 42.609 96.3839 42.141C96.3839 41.771 96.2339 41.451 95.9869 41.203C95.7119 40.953 95.3969 40.833 94.9789 40.833C94.6589 40.833 94.3589 40.933 94.1389 41.083C93.8889 41.275 93.5369 41.58 93.0969 42.049L89.4889 45.793V38.076C89.4889 37.456 89.3489 36.946 89.0589 36.604C88.7819 36.262 88.4029 36.107 87.9059 36.107C87.4089 36.107 87.0059 36.299 86.7159 36.674C86.4389 37.044 86.2839 37.584 86.2839 38.301V51.888C86.2839 52.508 86.4419 53.018 86.7189 53.323C86.9959 53.665 87.3989 53.82 87.8949 53.82C88.3349 53.82 88.7049 53.67 89.0249 53.323C89.3449 53.003 89.4919 52.535 89.4919 51.916V49.38L91.2219 47.753L94.0399 52.371C94.3819 52.938 94.6619 53.309 94.9799 53.431C95.1999 53.651 95.5199 53.751 95.8899 53.751C96.3599 53.751 96.7019 53.601 96.9799 53.311C97.2569 53.034 97.3799 52.621 97.3799 52.125C97.3939 51.943 97.3379 51.765 97.2399 51.572L97.2379 51.57Z" fill="#010001"/>
</svg>
