<svg width="120" height="60" viewBox="0 0 120 60" fill="none" xmlns="http://www.w3.org/2000/svg">
<path d="M17.9791 53.8333C22.3625 53.8333 25.9208 50.275 25.9208 45.8916V37.95H17.9791C13.5958 37.95 10.0375 41.5083 10.0375 45.8916C10.0375 50.275 13.5958 53.8333 17.9791 53.8333Z" fill="white"/>
<path d="M10.0292 30C10.0292 25.6167 13.5875 22.0583 17.9708 22.0583H25.9125V37.95H17.9708C13.5875 37.95 10.0292 34.3917 10.0292 30.0083V30Z" fill="white"/>
<path d="M10.0292 14.1084C10.0292 9.72508 13.5875 6.16675 17.9708 6.16675H25.9125V22.0584H17.9708C13.5875 22.0584 10.0292 18.5001 10.0292 14.1167V14.1084Z" fill="white"/>
<path d="M25.8458 6.16675H33.7875C38.1708 6.16675 41.7292 9.72508 41.7292 14.1084C41.7292 18.4917 38.1708 22.0501 33.7875 22.0501H25.8458V6.16675Z" fill="white"/>
<path d="M41.8125 30C41.8125 34.3833 38.2542 37.9417 33.8708 37.9417C29.4875 37.9417 25.8458 34.3833 25.8458 30C25.8458 25.6167 29.4042 22.0583 33.7875 22.0583C38.1708 22.0583 41.7292 25.6167 41.7292 30H41.8125Z" fill="white"/>
<path d="M50.4958 19.3333V35.9833H52.6375V28.0333H57.7875V25.9666H52.6375V21.4166H59.3292V19.3333H50.4958ZM63.2042 22.7166C63.9792 22.7166 64.6042 22.0916 64.6042 21.3166C64.6042 20.5416 63.9708 19.9999 63.2042 19.9999C62.4375 19.9999 61.8042 20.6249 61.8042 21.3999C61.8042 21.7749 61.9542 22.1249 62.2208 22.3999C62.4875 22.6749 62.8375 22.8166 63.2208 22.8166L63.2042 22.7166ZM62.1208 24.8166V35.9833H64.1792V24.8166H62.0542H62.1208ZM72.2208 24.4833C69.3708 24.4833 67.3875 26.9833 67.3875 29.7499C67.3875 32.5166 69.3875 34.9999 72.2208 34.9999C72.8104 35.0102 73.3957 34.8978 73.9394 34.6697C74.4831 34.4415 74.9735 34.1028 75.3792 33.6749V35.1583C75.3732 36.0495 75.0275 36.9049 74.4125 37.5499C74.1018 37.8669 73.731 38.1186 73.3217 38.2903C72.9124 38.462 72.473 38.5503 72.0292 38.5499C71.3477 38.5284 70.6873 38.3083 70.1292 37.9166L69.0459 39.7749C69.8778 40.31 70.8386 40.6107 71.8272 40.6456C72.8157 40.6804 73.7953 40.448 74.6629 39.9729C75.5304 39.4977 76.2538 38.7974 76.7567 37.9457C77.2597 37.094 77.5237 36.1224 77.5208 35.1333V24.7999H75.3792V25.7999C74.9735 25.3721 74.4831 25.0333 73.9394 24.8052C73.3957 24.5771 72.8104 24.4646 72.2208 24.4749V24.4833ZM69.5375 29.7499C69.4887 29.2081 69.5924 28.6635 69.8368 28.1776C70.0813 27.6916 70.4568 27.2837 70.9208 26.9999C71.8708 26.4166 73.0625 26.4166 74.0042 26.9999C74.9458 27.5833 75.4792 28.6499 75.3875 29.7499C75.4363 30.2917 75.3326 30.8363 75.0882 31.3223C74.8437 31.8082 74.4683 32.2161 74.0042 32.4999C73.0542 33.0833 71.8625 33.0833 70.9208 32.4999C69.9792 31.9166 69.4459 30.8499 69.5375 29.7499Z" fill="white"/>
<path d="M85.2458 26.6666C84.6299 26.6688 84.0398 26.9145 83.6042 27.35C83.1687 27.7856 82.923 28.3756 82.9208 28.9916V36.0583H80.7792V24.8916H82.9208V25.8333C83.5708 24.9666 84.6042 24.4666 85.6875 24.4833C87.0542 24.4499 88.3292 25.1833 89.0042 26.3749C89.8375 25.2083 91.0375 24.4999 92.3375 24.4833C94.7792 24.4833 96.2958 26.4499 96.3042 28.8833V35.9916H94.1625V28.9083C94.2253 28.467 94.1604 28.017 93.9755 27.6115C93.7905 27.206 93.4934 26.862 93.1191 26.62C92.7448 26.3781 92.309 26.2484 91.8633 26.2463C91.4177 26.2442 90.9807 26.3698 90.6042 26.6083C90.2297 26.8524 89.9333 27.1989 89.7501 27.6067C89.5669 28.0144 89.5047 28.4662 89.5708 28.9083V35.9749H87.5125V28.9166C87.5103 28.3006 87.2646 27.7106 86.8291 27.275C86.3936 26.8395 85.8035 26.5938 85.1875 26.5916L85.2458 26.6666ZM107.746 26.0833C107.258 25.5746 106.672 25.171 106.023 24.8973C105.374 24.6236 104.675 24.4855 103.971 24.4916C100.779 24.4916 98.5542 27.1916 98.5542 30.3249C98.5542 33.4583 100.804 36.1583 103.971 36.1583C104.675 36.1644 105.374 36.0263 106.023 35.7526C106.672 35.4789 107.258 35.0753 107.746 34.5666V35.8333H109.888V24.6666H107.746V26.0833ZM100.663 30.4166C100.554 29.0833 101.204 27.7999 102.346 27.0999C103.488 26.3999 104.846 26.3999 106.063 27.0999C106.62 27.4458 107.071 27.9379 107.368 28.5228C107.665 29.1076 107.796 29.7627 107.746 30.4166C107.854 31.7499 107.204 33.0333 106.063 33.7333C104.921 34.4333 103.563 34.4333 102.346 33.7333C101.789 33.3874 101.337 32.8953 101.04 32.3104C100.743 31.7256 100.613 31.0705 100.663 30.4166Z" fill="white"/>
</svg>
