<svg width="256" height="60" viewBox="0 0 256 60" fill="none" xmlns="http://www.w3.org/2000/svg">
<g clip-path="url(#clip0)">
<path d="M59.9314 30.0001C59.9314 46.5497 46.5152 59.9658 29.9657 59.9658C13.4161 59.9658 0 46.5497 0 30.0001C0 13.4506 13.4161 0.034462 29.9657 0.034462C46.5152 0.034462 59.9314 13.4506 59.9314 30.0001Z" fill="#222222"/>
<path d="M33.9611 30.0001H25.4708V21.0104H33.9611C36.4432 21.0104 38.4559 23.0231 38.4559 25.5052C38.4559 27.9874 36.4432 30.0001 33.9611 30.0001ZM33.9611 15.0172H19.4777V44.9829H25.4708V35.9932H33.9611C39.7534 35.9932 44.4491 31.2976 44.4491 25.5052C44.4491 19.7129 39.7534 15.0172 33.9611 15.0172Z" fill="white"/>
<path d="M91.4123 26.3374C91.4123 24.6893 90.145 23.6889 88.4991 23.6889H84.0867V28.9559H88.4991C90.1472 28.9559 91.4123 27.9555 91.4123 26.3374ZM79.9084 39.9888V20.0116H89.0862C93.3528 20.0116 95.6786 22.8948 95.6786 26.3374C95.6786 29.75 93.3263 32.6332 89.0862 32.6332H84.0862V39.9888H79.9084ZM98.2182 39.9888V25.4244H101.953V27.3373C102.983 26.1012 104.72 25.0723 106.485 25.0723V28.7197C106.219 28.661 105.896 28.6323 105.455 28.6323C104.219 28.6323 102.571 29.3377 101.953 30.2504V39.9888H98.218H98.2182ZM119.053 32.5156C119.053 30.3091 117.754 28.3963 115.407 28.3963C113.081 28.3963 111.787 30.3091 111.787 32.5156C111.787 34.752 113.081 36.6608 115.407 36.6608C117.759 36.6608 119.053 34.7493 119.053 32.5156ZM107.901 32.5156C107.901 28.4852 110.723 25.0723 115.404 25.0723C120.111 25.0723 122.936 28.4849 122.936 32.5156C122.936 36.5462 120.112 39.9888 115.404 39.9888C110.726 39.9888 107.901 36.5462 107.901 32.5156ZM135.509 35.0452V30.0144C134.89 29.073 133.537 28.3963 132.301 28.3963C130.154 28.3963 128.683 30.0734 128.683 32.5156C128.683 34.9867 130.157 36.6608 132.301 36.6608C133.537 36.6608 134.89 35.9866 135.509 35.0427V35.0452ZM135.509 39.986V37.8085C134.39 39.2206 132.862 39.986 131.125 39.986C127.565 39.986 124.829 37.2791 124.829 32.5128C124.829 27.8941 127.507 25.0696 131.125 25.0696C132.801 25.0696 134.39 25.7753 135.509 27.2461V20.0116H139.274V39.9888H135.509V39.986ZM152.582 39.9885V37.841C151.612 38.8998 149.906 39.9885 147.582 39.9885C144.461 39.9885 142.993 38.2817 142.993 35.5186V25.4269H146.728V34.0456C146.728 36.0171 147.758 36.6638 149.346 36.6638C150.788 36.6638 151.935 35.8697 152.582 35.0457V25.4247H156.319V39.9888H152.582V39.9885ZM159.125 32.5153C159.125 28.1613 162.301 25.0721 166.657 25.0721C169.57 25.0721 171.335 26.3369 172.277 27.6317L169.833 29.9253C169.157 28.9252 168.128 28.3958 166.837 28.3958C164.57 28.3958 162.982 30.0439 162.982 32.5151C162.982 34.9862 164.57 36.6603 166.837 36.6603C168.13 36.6603 169.16 36.0722 169.833 35.1009L172.277 37.3982C171.335 38.6932 169.57 39.9878 166.657 39.9878C162.302 39.9878 159.125 36.8988 159.125 32.5146V32.5153ZM175.489 36.0755V28.6909H173.137V25.4247H175.489V21.5416H179.226V25.4247H182.108V28.6909H179.226V35.0754C179.226 35.9868 179.696 36.6636 180.52 36.6636C181.078 36.6636 181.61 36.4576 181.813 36.2228L182.609 39.0761C182.05 39.5767 181.049 39.9888 179.487 39.9888C176.869 39.9888 175.487 38.6353 175.487 36.0757L175.489 36.0755ZM206.039 39.9888V31.3681H196.77V39.9888H192.597V20.0116H196.773V27.7196H206.041V20.0116H210.248V39.9888H206.039ZM223.618 39.9888V37.8412C222.648 38.9 220.942 39.9888 218.619 39.9888C215.497 39.9888 214.029 38.282 214.029 35.5189V25.4272H217.764V34.0456C217.764 36.0171 218.794 36.6638 220.382 36.6638C221.824 36.6638 222.972 35.8697 223.618 35.0457V25.4247H227.356V39.9888H223.618ZM240.661 39.9888V31.0448C240.661 29.073 239.633 28.3963 238.042 28.3963C236.569 28.3963 235.455 29.2203 234.806 30.0444V39.9888H231.071V25.4244H234.806V27.2489C235.719 26.1901 237.484 25.0723 239.779 25.0723C242.927 25.0723 244.424 26.8368 244.424 29.6022V39.9888H240.658H240.661ZM248.88 36.0757V28.6912H246.528V25.4249H248.88V21.5419H252.618V25.4249H255.499V28.6912H252.618V35.0756C252.618 35.9871 253.087 36.6638 253.911 36.6638C254.47 36.6638 255.001 36.4578 255.21 36.2231L256.003 39.0763C255.444 39.577 254.443 39.989 252.881 39.989C250.263 39.989 248.881 38.6356 248.881 36.076" fill="#222222"/>
</g>
<defs>
<clipPath id="clip0">
<rect width="256" height="60" fill="white"/>
</clipPath>
</defs>
</svg>
