<svg width="109" height="44" viewBox="0 0 109 44" fill="none" xmlns="http://www.w3.org/2000/svg">
<path d="M0 25.3552V18.6777L20.9577 7.54852V14.226L6.48227 21.8229V22.21L20.9577 29.8069V36.4844L0 25.3552Z" fill="#5294E2"/>
<path d="M57.8637 43.4523L73.5089 0H79.9912L64.346 43.4523H57.8637Z" fill="#5294E2"/>
<path d="M87.6729 29.8069L102.148 22.21V21.8229L87.6729 14.226V7.54852L108.631 18.6777V25.3552L87.6729 36.4844V29.8069Z" fill="#5294E2"/>
<path fill-rule="evenodd" clip-rule="evenodd" d="M42.8293 37.6586C40.5737 37.6586 38.4223 37.2357 36.3751 36.3898C34.3279 35.544 32.5688 34.4346 31.0978 33.0616C29.6267 31.6886 28.3457 30.1686 27.2547 28.5014C26.1637 26.8342 25.3485 25.167 24.8091 23.4999C24.2697 21.8327 24 20.2758 24 18.8293C24 17.1376 24.8213 15.3969 26.464 13.6071C26.5375 11.8174 26.9972 9.10206 27.8431 5.46124C28.6889 1.82041 29.3693 0 29.8842 0C30.35 0 31.5391 0.833589 33.4514 2.50077C35.3638 4.16795 37.08 5.81061 38.6001 7.42875C40.0466 7.18358 41.4563 7.06099 42.8293 7.06099C44.2023 7.06099 45.612 7.18358 47.0585 7.42875C48.5786 5.81061 50.2948 4.16795 52.2072 2.50077C54.1195 0.833589 55.3086 0 55.7745 0C56.2893 0 56.9697 1.82041 57.8155 5.46124C58.6614 9.10206 59.1211 11.8174 59.1946 13.6071C60.8373 15.3969 61.6586 17.1376 61.6586 18.8293C61.6586 20.2758 61.3889 21.8327 60.8495 23.4999C60.3102 25.167 59.495 26.8342 58.4039 28.5014C57.3129 30.1686 56.0319 31.6886 54.5609 33.0616C53.0898 34.4346 51.3307 35.544 49.2835 36.3898C47.2363 37.2357 45.0849 37.6586 42.8293 37.6586ZM35.7315 14.1221C34.448 14.1307 33.3508 14.5904 32.4401 15.5011C31.5207 16.4205 31.061 17.5299 31.061 18.8293C31.061 20.1287 31.5207 21.2381 32.4401 22.1575C33.3508 23.0683 34.448 23.5279 35.7315 23.5365C35.0898 23.5279 34.5443 23.0683 34.095 22.1575C33.6414 21.2381 33.4147 20.1287 33.4147 18.8293C33.4147 17.5299 33.6414 16.4205 34.095 15.5011C34.5443 14.5904 35.0898 14.1307 35.7315 14.1221ZM35.7561 14.122L35.7315 14.1221L35.7499 14.122H35.7561ZM35.7561 14.122H35.7683C37.0677 14.122 38.1771 14.5817 39.0965 15.5011C40.0159 16.4205 40.4756 17.5299 40.4756 18.8293C40.4756 20.1287 40.0159 21.2381 39.0965 22.1575C38.1771 23.0769 37.0677 23.5366 35.7683 23.5366H35.7561C36.4031 23.5337 36.9589 23.074 37.4232 22.1575C37.8891 21.2381 38.122 20.1287 38.122 18.8293C38.122 17.5299 37.8891 16.4205 37.4232 15.5011C36.9589 14.5846 36.4031 14.1249 35.7561 14.122ZM49.8903 14.122C48.5909 14.122 47.4815 14.5817 46.5621 15.5011C45.6427 16.4205 45.183 17.5299 45.183 18.8293C45.183 20.1287 45.6427 21.2381 46.5621 22.1575C47.4815 23.0769 48.5909 23.5366 49.8903 23.5366H49.8995H49.9087L49.9271 23.5365C51.2107 23.5279 52.3078 23.0683 53.2185 22.1575C54.1379 21.2381 54.5976 20.1287 54.5976 18.8293C54.5976 17.5299 54.1379 16.4205 53.2185 15.5011C52.3078 14.5904 51.2107 14.1307 49.9271 14.1221C50.5688 14.1307 51.1143 14.5904 51.5636 15.5011C52.0172 16.4205 52.244 17.5299 52.244 18.8293C52.244 20.1287 52.0172 21.2381 51.5636 22.1575C51.1143 23.0683 50.5688 23.5279 49.9271 23.5365L49.8995 23.5366C49.2537 23.5323 48.699 23.0726 48.2354 22.1575C47.7696 21.2381 47.5366 20.1287 47.5366 18.8293C47.5366 17.5299 47.7696 16.4205 48.2354 15.5011C48.6997 14.5846 49.2555 14.1249 49.9026 14.122H49.8903ZM36.6068 27.4683L31 25.9659L31.2588 25L36.8656 26.5023L36.6068 27.4683ZM55 25.988L49.2648 27.5248L49 26.5368L54.7353 25L55 25.988ZM36.5 29H31V28H36.5V29ZM55 29.0798H49V28.0798H55V29.0798ZM36.8649 30.9838L31.1791 32.0187L31 31.0349L36.6858 30L36.8649 30.9838ZM54.8168 32.1283L49.0008 31.0697L49.184 30.0634L55 31.122L54.8168 32.1283Z" fill="#5294E2"/>
</svg>
